<?xml version="1.0" standalone="no"?>
<!DOCTYPE svg PUBLIC "-//W3C//DTD SVG 20010904//EN"
 "http://www.w3.org/TR/2001/REC-SVG-20010904/DTD/svg10.dtd">
<svg version="1.0" xmlns="http://www.w3.org/2000/svg"
 width="605.000000pt" height="605.000000pt" viewBox="0 0 605.000000 605.000000"
 preserveAspectRatio="xMidYMid meet">
<metadata>
Created by potrace 1.14, written by Peter Selinger 2001-2017
</metadata>
<g transform="translate(0.000000,605.000000) scale(0.100000,-0.100000)"
fill="#000000" stroke="none">
<path d="M3160 6015 l0 -35 -70 0 -70 0 0 -35 0 -34 -72 -3 -73 -3 -3 -32 -3
-33 -70 0 -69 0 0 -75 0 -75 -70 0 -70 0 0 -70 0 -70 -75 0 -75 0 0 -75 0 -75
-35 0 -35 0 0 -70 0 -70 -35 0 -35 0 0 -70 0 -70 -35 0 -35 0 0 -75 0 -75 -40
0 -40 0 0 -70 0 -70 -35 0 -35 0 0 -75 0 -75 -35 0 -35 0 0 -70 0 -70 -35 0
-35 0 0 -145 0 -145 35 0 35 0 0 -75 0 -75 70 0 70 0 0 -70 0 -70 75 0 75 0 0
-35 c0 -33 2 -35 35 -35 l35 0 0 -70 0 -69 -107 -3 -108 -3 -3 -32 -3 -33 -70
0 -69 0 0 -75 0 -75 -70 0 -70 0 0 -70 0 -70 -75 0 -75 0 0 -75 0 -75 -35 0
-35 0 0 -70 0 -70 -35 0 -35 0 0 -70 0 -69 -72 -3 -73 -3 -3 -72 -3 -73 -34 0
-35 0 0 -215 0 -215 -35 0 -35 0 0 -70 0 -70 -35 0 -35 0 0 -220 0 -220 35 0
35 0 0 -75 0 -75 70 0 70 0 0 -70 0 -70 75 0 75 0 0 -35 0 -35 145 0 145 0 0
-35 c0 -33 2 -35 35 -35 l35 0 0 -580 0 -580 35 0 35 0 0 -70 0 -70 70 0 70 0
0 -35 0 -35 650 0 650 0 0 35 0 35 75 0 75 0 0 35 0 35 430 0 430 0 0 35 c0
33 2 35 35 35 l35 0 0 220 0 220 -35 0 -35 0 0 70 0 70 -70 0 -70 0 0 75 0 75
-75 0 -75 0 0 70 0 70 -35 0 -35 0 0 360 0 360 35 0 c33 0 35 2 35 35 l0 35
145 0 145 0 0 35 0 34 73 3 72 3 3 73 3 72 69 0 70 0 0 70 0 70 35 0 35 0 0
75 0 75 -35 0 -35 0 0 70 0 70 -35 0 -35 0 0 75 0 75 -35 0 -35 0 0 70 0 70
-75 0 -75 0 0 35 0 34 -142 3 -143 3 -3 38 c-3 35 -5 37 -38 37 l-34 0 0 140
0 140 35 0 35 0 0 69 0 70 38 3 37 3 3 73 3 72 34 0 c33 0 35 2 35 35 l0 35
70 0 70 0 0 35 0 35 75 0 75 0 0 35 0 35 70 0 70 0 0 35 c0 33 2 35 35 35 l35
0 0 75 0 75 -35 0 -35 0 0 75 0 75 -35 0 -34 0 -3 143 -3 142 -32 3 -33 3 0
70 0 69 -40 0 -40 0 0 70 0 70 40 0 40 0 0 70 0 70 70 0 70 0 0 40 c0 39 1 40
35 40 l35 0 0 70 0 70 -35 0 c-34 0 -35 1 -35 40 l0 40 -70 0 -70 0 0 70 0 70
-40 0 -40 0 0 215 0 215 -35 0 -35 0 0 75 0 75 -70 0 -70 0 0 70 0 70 -75 0
-75 0 0 35 0 35 -505 0 -505 0 0 -35z"/>
</g>
</svg>
